<svg id="Artwork" xmlns="http://www.w3.org/2000/svg" xmlns:xlink="http://www.w3.org/1999/xlink" viewBox="0 0 33 33.17"><defs><style>.cls-1{fill:#fff;stroke:#70c9c4;stroke-miterlimit:10;}.cls-2{fill:#70c9c4;}</style><symbol id="Fan_Icon_On" data-name="Fan Icon On" viewBox="0 0 33 33"><circle class="cls-1" cx="16.5" cy="16.5" r="16"/><path class="cls-2" d="M14.33,18.58a3,3,0,0,1-.8-1.46,8.85,8.85,0,0,1-1.13.08,11.61,11.61,0,0,1-2.08-.2A7.27,7.27,0,0,0,9,16.86a2.74,2.74,0,0,0-2.6,1.22c-0.7,1.21-.24,2.91.43,4.09C8,24.34,9.43,24.8,10.39,24.8c2.27,0,4.42-2.41,5.36-4.79L16,19.41A3,3,0,0,1,14.33,18.58Z"/><path class="cls-2" d="M12.93,15.72l0.58,0.22a3,3,0,0,1,2.32-2.39,10.33,10.33,0,0,1,.12-3.26,4.13,4.13,0,0,0-.5-3.45c-0.91-1.1-2.88-1.09-4.68-.07C8.48,8.05,8.08,9.55,8.15,10.58,8.3,12.77,10.67,14.83,12.93,15.72Z"/><path class="cls-2" d="M20,17.26L19.39,17a3,3,0,0,1-2.28,2.36A10.2,10.2,0,0,1,17,22.69a4.11,4.11,0,0,0,.5,3.45,2.51,2.51,0,0,0,2,.85,5.63,5.63,0,0,0,2.67-.78c2.29-1.29,2.69-2.79,2.62-3.82C24.64,20.2,22.27,18.15,20,17.26Z"/><path class="cls-2" d="M26.2,10.79C25,8.62,23.57,8.16,22.6,8.16c-2.28,0-4.42,2.41-5.36,4.79L17,13.53a3,3,0,0,1,2.35,2.33,8.53,8.53,0,0,1,1.22-.09,11.6,11.6,0,0,1,2.08.2A7.3,7.3,0,0,0,24,16.1a2.76,2.76,0,0,0,2.6-1.22C27.34,13.67,26.87,12,26.2,10.79Z"/></symbol></defs><title>14</title><use width="33" height="33" transform="translate(0 -0.08)" xlink:href="#Fan_Icon_On"/></svg>