<svg id="Artwork" xmlns="http://www.w3.org/2000/svg" xmlns:xlink="http://www.w3.org/1999/xlink" viewBox="0 0 33 33.17"><defs><style>.cls-1{fill:#fff;stroke:#70c9c4;stroke-miterlimit:10;}.cls-2{fill:#70c9c4;}</style><symbol id="Heat_Icon_On" data-name="Heat Icon On" viewBox="0 0 33 33"><circle class="cls-1" cx="16.5" cy="16.5" r="16"/><path class="cls-2" d="M16,5.61a0.83,0.83,0,0,0-1.41.48h0c-1.38,7.23-5.78,9.11-6.27,13.54-0.4,3.6,2.71,6.14,5.25,7.73A5.34,5.34,0,0,1,11.75,23c0.28-3.43,3.27-4.44,4.7-9h0a0.72,0.72,0,0,1,1.28-.38h0c3.14,2.91,6.56,7.94.85,14.44a3.58,3.58,0,0,0,1.09-.59C28.61,20.45,24.72,12.12,16,5.61Z"/></symbol></defs><title>14</title><use id="Heat_Icon_On-3" data-name="Heat Icon On" width="33" height="33" xlink:href="#Heat_Icon_On"/></svg>