<svg id="Artwork" xmlns="http://www.w3.org/2000/svg" xmlns:xlink="http://www.w3.org/1999/xlink" viewBox="0 0 33 33.17"><defs><style>.cls-1{fill:#70cac4;stroke:#70c9c4;stroke-miterlimit:10;}.cls-2{fill:#52637e;}</style><symbol id="Cool_Icon" data-name="Cool Icon" viewBox="0 0 33 33"><circle class="cls-1" cx="16.5" cy="16.5" r="16"/><path class="cls-2" d="M26.31,18L23,18.84l-2.58-1.49a3.9,3.9,0,0,0,.09-0.85,4,4,0,0,0-.09-0.84L23,14.18l3.28,0.88a1.17,1.17,0,0,0,.32,0A1.23,1.23,0,0,0,27,12.68L24.37,12l0.7-2.58a1.23,1.23,0,1,0-2.38-.64L21.8,12l-2.59,1.49a4,4,0,0,0-1.45-.84v-3l2.4-2.39a1.23,1.23,0,0,0-1.74-1.74L16.54,7.46,14.65,5.56A1.23,1.23,0,1,0,12.91,7.3l2.4,2.41v3a4.08,4.08,0,0,0-1.46.84L11.26,12,10.38,8.75A1.23,1.23,0,1,0,8,9.38L8.69,12l-2.59.69a1.23,1.23,0,0,0,.32,2.42,1.29,1.29,0,0,0,.32,0L10,14.16l2.58,1.49a3.94,3.94,0,0,0-.1.85,4,4,0,0,0,.09.84L10,18.82l-3.27-.88a1.23,1.23,0,0,0-.64,2.38L8.69,21,8,23.59a1.23,1.23,0,0,0,.87,1.51,1.31,1.31,0,0,0,.32,0,1.23,1.23,0,0,0,1.19-.91L11.25,21l2.59-1.49a4,4,0,0,0,1.45.84v3l-2.4,2.39a1.23,1.23,0,1,0,1.74,1.74l1.89-1.89,1.89,1.89a1.22,1.22,0,0,0,.87.36,1.23,1.23,0,0,0,.87-2.1l-2.4-2.41v-3a4,4,0,0,0,1.45-.83L21.79,21l0.88,3.28a1.23,1.23,0,0,0,1.19.91,1.28,1.28,0,0,0,.32,0A1.23,1.23,0,0,0,25,23.61L24.36,21l2.58-.69A1.23,1.23,0,0,0,26.31,18Zm-9.78.64a2.1,2.1,0,1,1,2.1-2.11A2.11,2.11,0,0,1,16.53,18.6Z"/></symbol></defs><title>14</title><use width="33" height="33" transform="translate(0 0.08)" xlink:href="#Cool_Icon"/></svg>