<svg id="Artwork" xmlns="http://www.w3.org/2000/svg" xmlns:xlink="http://www.w3.org/1999/xlink" viewBox="0 0 33 33.17"><defs><style>.cls-1{fill:#fff;stroke:#70c9c4;stroke-miterlimit:10;}.cls-2{fill:#808285;}</style><symbol id="Power_Icon" data-name="Power Icon" viewBox="0 0 33 33"><circle class="cls-1" cx="16.5" cy="16.5" r="16"/><path class="cls-2" d="M16.53,15.14a1.06,1.06,0,0,1-1.05-1.05V6.27a1.05,1.05,0,0,1,2.11,0v7.81A1.06,1.06,0,0,1,16.53,15.14Z"/><path class="cls-2" d="M20.11,7.84a1.06,1.06,0,0,0-.81,1.95,7.28,7.28,0,1,1-5.6,0,1.06,1.06,0,0,0-.81-1.95A9.39,9.39,0,1,0,20.11,7.84Z"/></symbol></defs><title>14</title><use width="33" height="33" xlink:href="#Power_Icon"/></svg>