<?xml version="1.0" encoding="UTF-8"?>
<svg viewBox="0 0 12 13" version="1.1" xmlns="http://www.w3.org/2000/svg" xmlns:xlink="http://www.w3.org/1999/xlink">
    <!-- Generator: Sketch 47.1 (45422) - http://www.bohemiancoding.com/sketch -->
    <title>Group@2x</title>
    <desc>Created with Sketch.</desc>
    <defs></defs>
    <g id="Page-1" stroke="none" stroke-width="1" fill="none" fill-rule="evenodd">
        <g id="Group" fill-rule="nonzero" fill="#ffd54c">
            <path d="M7.76,10.16 C7.29833612,10.1545999 6.92540013,9.78166388 6.92,9.32 L6.92,7.37 C6.93038245,6.98643316 7.03697957,6.61162392 7.23,6.28 L10.23,0.79 C10.3764789,0.527409771 10.6519212,0.362911951 10.9525704,0.358471282 C11.2532197,0.354030613 11.5334001,0.510321737 11.6875705,0.768471297 C11.8417408,1.02662086 11.8464789,1.34740979 11.7,1.61 L8.7,7.13 C8.66427421,7.20668983 8.63743326,7.28721266 8.62,7.37 L8.62,9.32 C8.62,9.78391919 8.24391919,10.16 7.78,10.16" id="Shape"></path>
            <path d="M4.11,10.16 C3.64833612,10.1545999 3.27540013,9.78166388 3.27,9.32 L3.27,7.37 C3.26073928,7.30057191 3.24048587,7.23306054 3.21,7.17 L0.15,1.61 C0.00352108536,1.34740979 0.00825920289,1.02662086 0.162429549,0.768471297 C0.316599896,0.510321737 0.596780326,0.354030613 0.897429576,0.358471282 C1.19807883,0.362911951 1.47352112,0.527409771 1.62,0.79 L4.67,6.32 C4.8447881,6.64303861 4.94073062,7.00282306 4.95,7.37 L4.95,9.32 C4.95,9.78391919 4.57391919,10.16 4.11,10.16" id="Shape"></path>
            <path d="M4.82,11.58 C4.81594729,11.1261143 5.08624199,10.7146625 5.5044201,10.5381526 C5.92259822,10.3616427 6.40596112,10.454981 6.72835564,10.774497 C7.05075015,11.094013 7.14841975,11.5765194 6.97566732,11.9962637 C6.80291489,12.416008 6.39390383,12.6899819 5.94,12.69 C5.32532537,12.6900245 4.82548817,12.1946501 4.82,11.58" id="Shape"></path>
            <path d="M4.82,4.89 C4.81594729,4.43611426 5.08624199,4.02466254 5.5044201,3.84815261 C5.92259822,3.67164268 6.40596112,3.76498103 6.72835564,4.08449702 C7.05075015,4.40401301 7.14841975,4.88651938 6.97566732,5.30626369 C6.80291489,5.726008 6.39390383,5.99998191 5.94,6 C5.32532537,6.0000245 4.82548817,5.50465013 4.82,4.89" id="Shape"></path>
            <path d="M3.11,1.39 C3.11001809,0.936096168 3.383992,0.52708511 3.80373631,0.354332681 C4.22348062,0.181580252 4.70598699,0.279249852 5.02550298,0.601644364 C5.34501897,0.924038876 5.43835732,1.40740178 5.26184739,1.8255799 C5.08533746,2.24375801 4.67388574,2.51405271 4.22,2.51 C3.92386887,2.51001202 3.64000991,2.39169421 3.43155467,2.18136099 C3.22309943,1.97102778 3.10733215,1.68611912 3.11,1.39" id="Shape"></path>
            <path d="M8.77,1.39 C8.77,0.77144108 8.26855892,0.27 7.65,0.27 C7.03144108,0.27 6.53,0.77144108 6.53,1.39 C6.53,2.00855892 7.03144108,2.51 7.65,2.51 C8.26855892,2.51 8.77,2.00855892 8.77,1.39" id="Shape"></path>
        </g>
    </g>
</svg>
