<?xml version="1.0" encoding="UTF-8"?>
<svg viewBox="0 0 15 10" version="1.1" xmlns="http://www.w3.org/2000/svg" xmlns:xlink="http://www.w3.org/1999/xlink">
    <!-- Generator: Sketch 47.1 (45422) - http://www.bohemiancoding.com/sketch -->
    <title>wifi</title>
    <desc>Created with Sketch.</desc>
    <defs></defs>
    <g id="Page-1" stroke="none" stroke-width="1" fill="none" fill-rule="evenodd">
        <g id="wifi" fill-rule="nonzero" fill="#ffd54c">
            <path d="M9.86,9.82 C9.6424824,9.81712429 9.43183491,9.74339767 9.26,9.61 C8.48682283,8.98612627 7.38317717,8.98612627 6.61,9.61 C6.35812776,9.82257304 6.01198185,9.88462638 5.70195208,9.77278514 C5.39192231,9.66094389 5.16510958,9.3921994 5.10695207,9.06778512 C5.04879455,8.74337085 5.16812775,8.41257302 5.42,8.2 C6.8813312,7.02999867 8.9586688,7.02999867 10.42,8.2 C10.6075686,8.35742236 10.7246389,8.58312663 10.7452853,8.8271297 C10.7659318,9.07113277 10.6884505,9.3132991 10.53,9.5 C10.3551705,9.71139271 10.0943087,9.8326383 9.82,9.83" id="Shape"></path>
            <path d="M4,7.07 C3.73971583,7.06363795 3.4921756,6.95601177 3.31,6.77 C2.96634293,6.39113632 2.99314933,5.80586333 3.37,5.46 C5.97348,3.08624007 9.95652,3.08624007 12.56,5.46 C12.7434334,5.62471449 12.8530839,5.85615862 12.8643636,6.10243373 C12.8756434,6.34870883 12.7876086,6.58920725 12.62,6.77 C12.4570452,6.95282916 12.2272746,7.06225694 11.9826253,7.07354844 C11.737976,7.08483995 11.4991027,6.99704189 11.32,6.83 C9.4169045,5.11240732 6.5230955,5.11240732 4.62,6.83 C4.44996462,6.98366069 4.2291787,7.06912621 4,7.07" id="Shape"></path>
            <path d="M1.86,4.27 C1.60461187,4.26374001 1.36130332,4.15997607 1.18,3.98 C0.820277734,3.61741737 0.820277734,3.03258263 1.18,2.67 C4.95108265,-0.884526391 10.8389174,-0.884526391 14.61,2.67 C14.9697223,3.03258263 14.9697223,3.61741737 14.61,3.98 C14.4371168,4.15527943 14.201194,4.25395434 13.955,4.25395434 C13.708806,4.25395434 13.4728832,4.15527943 13.3,3.98 C10.2418267,1.09852062 5.46817332,1.09852062 2.41,3.98 C2.24160822,4.14500311 2.0157512,4.23821394 1.78,4.24" id="Shape"></path>
        </g>
    </g>
</svg>
